<svg viewBox="0 0 50 50" xmlns="http://www.w3.org/2000/svg" xmlns:xlink="http://www.w3.org/1999/xlink" width="50.000000" height="50.000000" fill="none" customFrame="url(#clipPath_0)">
	<defs>
		<clipPath id="clipPath_0">
			<rect width="50.000000" height="50.000000" x="0.000000" y="0.000000" rx="25.000000" fill="rgb(255,255,255)" />
		</clipPath>
		<clipPath id="clipPath_1">
			<rect width="24.000000" height="24.000000" x="13.000000" y="13.000000" fill="rgb(255,255,255)" />
		</clipPath>
	</defs>
	<rect id="容器 161" width="50.000000" height="50.000000" x="0.000000" y="0.000000" rx="25.000000" fill="rgb(255,232,224)" />
	<g id="user" customFrame="url(#clipPath_1)">
		<rect id="user" width="24.000000" height="24.000000" x="13.000000" y="13.000000" />
		<path id="矢量 109" d="M32 34L32 32C32 31.2979 31.8152 30.6081 31.4641 30C31.113 29.3919 30.6081 28.887 30 28.5359C29.3919 28.1848 28.7021 28 28 28L22 28C21.2979 28 20.6081 28.1848 20 28.5359C19.3919 28.887 18.887 29.3919 18.5359 30C18.1848 30.6081 18 31.2979 18 32L18 34" fill-rule="nonzero" stroke="rgb(227,115,24)" stroke-linecap="round" stroke-linejoin="round" stroke-width="2.000000" />
		<circle id="椭圆 25" cx="25" cy="20" r="4" stroke="rgb(227,115,24)" stroke-linecap="round" stroke-linejoin="round" stroke-width="2.000000" />
	</g>
</svg>
