<svg viewBox="0 0 46 46" xmlns="http://www.w3.org/2000/svg" xmlns:xlink="http://www.w3.org/1999/xlink" width="46.000000" height="46.000000" fill="none" customFrame="url(#clipPath_4)">
	<defs>
		<clipPath id="clipPath_4">
			<rect width="46.000000" height="46.000000" x="0.000000" y="0.000000" rx="23.000000" fill="rgb(255,255,255)" />
		</clipPath>
		<clipPath id="clipPath_5">
			<rect width="22.000000" height="22.000000" x="12.000000" y="12.000000" fill="rgb(255,255,255)" />
		</clipPath>
	</defs>
	<rect id="AvatarWrap" width="46.000000" height="46.000000" x="0.000000" y="0.000000" rx="23.000000" fill="rgb(214,228,255)" />
	<g id="user" customFrame="url(#clipPath_5)">
		<rect id="user" width="22.000000" height="22.000000" x="12.000000" y="12.000000" />
		<path id="矢量 21" d="M29.4166 31.25L29.4166 29.4167C29.4166 28.773 29.2472 28.1407 28.9253 27.5833C28.6035 27.0259 28.1407 26.5631 27.5833 26.2412C27.0258 25.9194 26.3936 25.75 25.7499 25.75L20.2499 25.75C19.6063 25.75 18.974 25.9194 18.4166 26.2412C17.8592 26.5631 17.3963 27.0259 17.0745 27.5833C16.7527 28.1407 16.5833 28.773 16.5833 29.4167L16.5833 31.25" fill-rule="nonzero" stroke="rgb(0,82,217)" stroke-linecap="round" stroke-linejoin="round" stroke-width="1.833333" />
		<circle id="椭圆 10" cx="22.999918" cy="18.416666" r="3.66666675" stroke="rgb(0,82,217)" stroke-linecap="round" stroke-linejoin="round" stroke-width="1.833333" />
	</g>
</svg>
