<svg viewBox="0 0 200 200" xmlns="http://www.w3.org/2000/svg" xmlns:xlink="http://www.w3.org/1999/xlink" width="200.000000" height="200.000000" fill="none" customFrame="url(#clipPath_0)">
	<defs>
		<clipPath id="clipPath_0">
			<rect width="200.000000" height="200.000000" x="0.000000" y="0.000000" rx="100.000000" fill="rgb(255,255,255)" />
		</clipPath>
		<clipPath id="clipPath_1">
			<rect width="64.000000" height="64.000000" x="68.000000" y="56.000000" fill="rgb(255,255,255)" />
		</clipPath>
	</defs>
	<rect id="FaceFrame" width="200.000000" height="200.000000" x="0.000000" y="0.000000" rx="100.000000" fill="rgb(26,5,51)" />
	<rect id="ScanRing" width="180.000000" height="180.000000" x="10.000000" y="10.000000" rx="90.000000" fill="rgb(0,0,0)" fill-opacity="0" />
	<rect id="ScanRing" width="178.000000" height="178.000000" x="11.000000" y="11.000000" rx="89.000000" stroke="rgb(139,92,246)" stroke-width="2.000000" />
	<rect id="ScanRingInner" width="160.000000" height="160.000000" x="20.000000" y="20.000000" rx="80.000000" fill="rgb(0,0,0)" fill-opacity="0" />
	<rect id="ScanRingInner" width="159.000000" height="159.000000" x="20.500000" y="20.500000" rx="79.500000" stroke="rgb(139,92,246)" stroke-opacity="0.300000012" stroke-width="1.000000" />
	<g id="scan-face" customFrame="url(#clipPath_1)">
		<rect id="scan-face" width="64.000000" height="64.000000" x="68.000000" y="56.000000" />
		<path id="矢量 83" d="M76 74.6667L76 69.3333C76 68.3971 76.2464 67.4774 76.7145 66.6667C77.1826 65.8559 77.8559 65.1826 78.6667 64.7145C79.4774 64.2464 80.3971 64 81.3333 64L86.6667 64" fill-rule="nonzero" stroke="rgb(139,92,246)" stroke-linecap="round" stroke-linejoin="round" stroke-width="5.333333" />
		<path id="矢量 84" d="M113.333 64L118.667 64C119.603 64 120.523 64.2464 121.333 64.7145C122.144 65.1826 122.818 65.8559 123.286 66.6667C123.754 67.4774 124 68.3971 124 69.3333L124 74.6667" fill-rule="nonzero" stroke="rgb(139,92,246)" stroke-linecap="round" stroke-linejoin="round" stroke-width="5.333333" />
		<path id="矢量 85" d="M124 101.333L124 106.667C124 107.603 123.754 108.522 123.286 109.333C122.818 110.144 122.144 110.817 121.333 111.285C120.523 111.753 119.603 112 118.667 112L113.333 112" fill-rule="nonzero" stroke="rgb(139,92,246)" stroke-linecap="round" stroke-linejoin="round" stroke-width="5.333333" />
		<path id="矢量 86" d="M86.6667 112L81.3333 112C80.3971 112 79.4774 111.753 78.6667 111.285C77.8559 110.817 77.1826 110.144 76.7145 109.333C76.2464 108.522 76 107.603 76 106.667L76 101.333" fill-rule="nonzero" stroke="rgb(139,92,246)" stroke-linecap="round" stroke-linejoin="round" stroke-width="5.333333" />
		<path id="矢量 87" d="M89.3335 93.3334C89.3335 93.3334 93.3335 98.6667 100 98.6667C106.667 98.6667 110.667 93.3334 110.667 93.3334" fill-rule="nonzero" stroke="rgb(139,92,246)" stroke-linecap="round" stroke-linejoin="round" stroke-width="5.333333" />
		<path id="矢量 88" d="M92 80L92.0267 80" stroke="rgb(139,92,246)" stroke-linecap="round" stroke-linejoin="round" stroke-width="5.333333" />
		<path id="矢量 89" d="M108 80L108.027 80" stroke="rgb(139,92,246)" stroke-linecap="round" stroke-linejoin="round" stroke-width="5.333333" />
	</g>
	<path id="" d="M79.7954 130.022L81.0396 130.022L81.0396 134.494L79.7954 134.494L79.7954 130.022ZM77.2532 135.074L77.2532 137.118L83.6929 137.118L83.6929 135.074L77.2532 135.074ZM76.082 133.929L84.9434 133.929L84.9434 138.261L76.082 138.261L76.082 133.929ZM80.373 131.304L85.8669 131.304L85.8669 132.459L80.373 132.459L80.373 131.304ZM78.3005 139.337L79.4717 139.229C79.5373 139.508 79.5944 139.81 79.6431 140.134C79.6938 140.455 79.7351 140.764 79.7668 141.06C79.7986 141.357 79.8166 141.614 79.8208 141.832L78.5735 141.993C78.5735 141.771 78.5619 141.508 78.5386 141.203C78.5174 140.898 78.4867 140.582 78.4465 140.254C78.4063 139.926 78.3577 139.62 78.3005 139.337ZM80.9824 139.35L82.106 139.102C82.2393 139.369 82.3715 139.656 82.5027 139.965C82.6339 140.274 82.7524 140.575 82.8582 140.867C82.964 141.159 83.0412 141.417 83.0898 141.641L81.8901 141.946C81.8478 141.724 81.7791 141.462 81.6838 141.162C81.5886 140.861 81.4797 140.552 81.3569 140.235C81.2363 139.916 81.1115 139.62 80.9824 139.35ZM83.6326 139.254L84.7371 138.845C84.9571 139.118 85.1782 139.415 85.4004 139.737C85.6226 140.056 85.8278 140.372 86.0161 140.683C86.2044 140.994 86.3504 141.274 86.4541 141.524L85.2798 141.997C85.1846 141.749 85.0481 141.467 84.8704 141.149C84.6926 140.834 84.4958 140.509 84.28 140.175C84.0642 139.84 83.8484 139.534 83.6326 139.254ZM76.1772 138.934L77.3516 139.232C77.1527 139.742 76.8977 140.256 76.5867 140.775C76.2777 141.293 75.9487 141.724 75.5996 142.066L74.4697 141.517C74.8062 141.225 75.1267 140.842 75.4314 140.368C75.7361 139.892 75.9847 139.414 76.1772 138.934ZM88.7139 131.951L98.3845 131.951L98.3845 133.173L88.7139 133.173L88.7139 131.951ZM87.7617 134.979L99.2668 134.979L99.2668 136.211L87.7617 136.211L87.7617 134.979ZM92.9033 130.034L94.2046 130.034L94.2046 141.016L92.9033 141.016L92.9033 130.034ZM96.9023 137.099L98.1687 137.099L98.1687 142.098L96.9023 142.098L96.9023 137.099ZM88.8345 137.109L90.1421 137.109L90.1421 140.219L97.7625 140.219L97.7625 141.419L88.8345 141.419L88.8345 137.109ZM106.119 134.103L111.492 134.103L111.492 135.338L106.119 135.338L106.119 134.103ZM100.622 140.229L112.391 140.229L112.391 141.463L100.622 141.463L100.622 140.229ZM105.418 130.206L106.729 130.206L106.729 140.902L105.418 140.902L105.418 130.206ZM116.31 130.076L117.472 130.434C117.191 131.166 116.859 131.896 116.479 132.624C116.098 133.35 115.686 134.036 115.244 134.681C114.802 135.324 114.344 135.891 113.87 136.382C113.834 136.283 113.775 136.155 113.695 135.998C113.617 135.839 113.532 135.68 113.441 135.519C113.352 135.356 113.271 135.227 113.197 135.132C113.611 134.719 114.011 134.244 114.396 133.707C114.782 133.167 115.139 132.587 115.469 131.967C115.799 131.345 116.08 130.715 116.31 130.076ZM114.961 133.532L116.142 132.345L116.155 132.358L116.155 142.073L114.961 142.073L114.961 133.532ZM119.233 136.423L124.035 136.423L124.035 137.572L119.233 137.572L119.233 136.423ZM123.626 136.423L123.842 136.423L124.035 136.357L124.899 136.899C124.571 137.272 124.208 137.679 123.81 138.121C123.414 138.564 123.007 139.008 122.588 139.454C122.169 139.901 121.764 140.329 121.373 140.74L120.37 140.105C120.757 139.718 121.157 139.305 121.569 138.867C121.982 138.427 122.37 138.004 122.734 137.598C123.098 137.191 123.395 136.843 123.626 136.553L123.626 136.423ZM120.316 130.123L121.531 130.285C121.383 130.882 121.222 131.509 121.049 132.167C120.877 132.825 120.701 133.484 120.519 134.145C120.337 134.805 120.16 135.429 119.989 136.017C119.82 136.605 119.661 137.124 119.513 137.572L118.205 137.572C118.37 137.096 118.548 136.555 118.738 135.947C118.929 135.338 119.118 134.698 119.306 134.027C119.495 133.354 119.676 132.682 119.849 132.012C120.023 131.341 120.178 130.712 120.316 130.123ZM117.542 131.475L124.826 131.475L124.826 132.608L117.542 132.608L117.542 131.475ZM116.793 133.922L125.454 133.922L125.454 135.071L116.793 135.071L116.793 133.922ZM118.979 139.429L119.852 138.686C120.28 138.932 120.716 139.204 121.16 139.502C121.606 139.798 122.022 140.093 122.407 140.387C122.794 140.679 123.114 140.947 123.366 141.19L122.474 142.111C122.233 141.859 121.917 141.573 121.528 141.254C121.139 140.937 120.721 140.617 120.274 140.295C119.83 139.974 119.398 139.685 118.979 139.429Z" opacity="0.800000012" fill="rgb(139,92,246)" fill-rule="nonzero" />
</svg>
